<!--?xml version="1.0" encoding="utf-8"?-->
<!-- Generator: Adobe Illustrator 15.0.0, SVG Export Plug-In . SVG Version: 6.00 Build 0)  -->

<svg xmlns="http://www.w3.org/2000/svg" xmlns:xlink="http://www.w3.org/1999/xlink" width="500px" height="500px" viewBox="0 0 500 500">
<path fill-rule="evenodd" clip-rule="evenodd" d="M185.945,47.648c0.351,0,0.701,0,1.051,0c7.376,7.674,18.116,11.989,24.153,21.002
	c-29.351-9.588-51.511,10.147-72.459,18.902c-3.281-3.01,4.095-4.245,5.251-6.3c-5.619-1.042-19.218,4.561-25.204,3.151
	c10.867-7.685,26.452-10.654,38.855-16.802c-10.141-2.079-19.096,6.099-30.453,6.3c15.713-10.515,35.153-24.997,61.958-17.853
	C191.271,54.145,184.843,51.962,185.945,47.648z" id="path-0" style="position: relative;"></path>
<path fill-rule="evenodd" clip-rule="evenodd" d="M210.098,72.853c1.006,3.805-4.533,1.066-5.251,3.149
	c5.635,2.767,11.946,4.858,18.902,6.302c-0.662,3.538-5.663,2.734-9.451,3.149c0.555,5.048,8.094,3.108,8.402,8.402
	c-9.801,0-19.603,0-29.404,0c0.863-5.043,10.515-6.131,10.502-9.451c-0.026-6.36-14.766-7.826-18.902-5.251
	c-3.89,2.421-6.33,8.009-11.553,12.603c-12.132,10.668-33.578,11.972-39.904,15.751c18.825-10.229,32.976-25.132,49.355-37.804
	C193.845,68.802,201.348,71.451,210.098,72.853z" id="path-1" style="position: relative;"></path>
<path fill-rule="evenodd" clip-rule="evenodd" d="M153.392,84.404c1.22,4.123-5.373,7.708-9.451,10.5
	c-12.882,8.821-33.213,15.311-47.257,23.104c3.657-7.195,12.709-8.994,16.802-15.753c-13.534-0.933-18.043,7.159-25.202,12.602
	C91.106,90.024,131.648,93.814,153.392,84.404z" id="path-2" style="position: relative;"></path>
<path fill-rule="evenodd" clip-rule="evenodd" d="M204.847,99.105c1.149,4.284-6.14,8.317-8.4,12.6c0.252,2.707,1.807-1.442,4.2,0
	c0.697,6.298-0.953,10.25-1.049,15.753c4.693,0.472,11.408-6.078,17.851-7.351c-5.343,9.359-14.788,14.617-21.002,23.102
	c-4.106-5.345-2.81-16.093-6.302-22.053c-8.896,8.254-16.745,17.561-25.202,26.253c0.511-16.644,12.369-31.032,26.253-37.804
	c-8.105-1.091-15.446,7.65-24.153,9.451C173.524,106.982,185.915,95.229,204.847,99.105z" id="path-3" style="position: relative;"></path>
<path fill-rule="evenodd" clip-rule="evenodd" d="M168.094,100.155c1.29,0.459,2.155,1.344,2.1,3.151
	c-6.039,2.012-9.713,6.388-15.753,8.4c0.346,3.856,7.469,0.934,7.351,5.251c-8.4,0-16.802,0-25.202,0
	C142.939,107.205,157.22,105.382,168.094,100.155z" id="path-4" style="position: relative;"></path>
<path fill-rule="evenodd" clip-rule="evenodd" d="M133.439,112.757c-1.615,3.984-6.785,4.416-8.4,8.4
	c11.386,0.515,20.722,3.081,32.553,3.151c-17.131,8.772-41.092,10.714-61.957,15.753c4.138-3.566,8.25-7.152,11.551-11.553
	c-8.455,0.297-16.731,0.771-24.153,2.1c3.014-5.604,11.066-7.59,17.853-10.5C110.817,115.848,119.371,109.933,133.439,112.757z" id="path-5" style="position: relative;"></path>
<path fill-rule="evenodd" clip-rule="evenodd" d="M326.661,129.559c4.61,7.187,13.775,16.042,6.303,26.253
	c5.046-0.203,5.648-4.854,6.302-9.451c13.771,25.454-31.275,16.212-26.255,49.355c3.888,25.651,37.624,29.654,51.455,49.357
	c14.638,20.854-0.06,53.292-32.554,47.255c0.62,15.839,7.46,27.503,17.852,38.855c9.263,10.117,23.328,17.804,29.404,26.251
	c10.135,14.087-7.751,37.257-25.2,29.404c-3.063-4.648,2.013-8.798,3.149-12.601c-8.746,0.005-8.652,8.849-11.554,14.702
	c-5.627-0.32-5.605-6.298-5.251-12.6c-5.037,1.61-3.546,9.75-7.349,12.6c-10.229-6.161-0.936-22.234,7.349-23.102
	c-5.478-7.447-17.885-7.742-25.2-17.855c-6.156-8.507-6.764-21.556-25.204-17.851c-9.797,1.97-16.035,12.771-24.152,18.901
	c0.978,9.37,12.279,15.057,11.553,24.153c-0.696,8.661-11.912,13.878-23.106,15.753c-1.128-5.661-1.773-11.639,2.103-14.702
	c-6.858,1.894-8.516,8.985-10.502,15.754c-4.708-1.944-5.93-7.371-5.251-14.702c-5.914-0.313-1.496,9.703-4.2,12.6
	c-13.548-5.042-1.188-21.23,5.251-25.204c-7.126-9.323-26.642-20.932-12.602-35.702c3.143,2.871-1.401,6.938,0,11.549
	c5.591,4.563,11.043,9.264,21.002,9.451c13.506-15.283-11.125-24.008-19.951-30.451c-20.665,9.789-13.63,47.276-21.002,70.357
	c-8.847,1.85-26.409,4.35-34.655,0c-1.28-19.376,20.233-23.209,30.453-11.549c1.113-17.522-1.613-27.832,0-40.957
	c2.331-18.945,14.019-27.521,21.004-38.855c9.752-15.826-8.297-41.936-8.402-60.906c-0.079-14.356,9.951-24.377,10.502-38.855
	c0.282-7.445-3.245-13.049,0-22.053c3.025,10.387,13.922,23.668,10.5,36.755c-1.961,7.507-6.567,14.369-7.351,21.002
	c-3.348,28.333,17.5,46.8,29.404,71.411c16.143-2.761,24.876-12.93,39.906-16.805c-1.794,12.211-6.635,21.367-12.604,29.404
	c9.806,5.973,20.115,2.679,26.255,11.553c4.508,6.512,2.315,17.573,9.451,19.949c8.473,2.824,17.642-3.931,17.851-11.549
	c0.239-8.579-11.245-19.325-14.702-26.255c-6.861-13.75-9.502-29.888-21-37.805c-7.836-5.392-18.966-5.978-28.353-9.451
	c-17.325-6.408-30.396-16.723-37.806-33.604c3.645-2.331,4.982,3.439,7.351,5.251c13.659,10.449,43.491,12.856,58.808,24.153
	c10.237,7.554,18.591,23.913,37.805,21.004c5.233-0.795,11.574-5.119,12.6-9.451c8.776-37.125-47.229-42.715-48.306-76.661
	c-0.286-9.03,3.294-16.779,10.502-27.302c-1.551-12.406,4.123-17.58,9.451-23.104C327.208,137.822,322.018,134.323,326.661,129.559z
	" id="path-6" style="position: relative;"></path>
<path fill-rule="evenodd" clip-rule="evenodd" d="M143.941,135.859c-21.446,20.209-43.158,40.154-53.557,71.41
	c-0.996-20.603,11.308-36.997,18.902-52.508c-8.673-0.961-17.787,6.708-22.053,13.653c1.641-14.117,15.424-25.179,31.504-28.353
	c0.297,1.694-0.991,1.807-1.049,3.149C127.37,141.691,134.494,137.615,143.941,135.859z" id="path-7" style="position: relative;"></path>
<path fill-rule="evenodd" clip-rule="evenodd" d="M204.847,143.21c5.612,2.521-0.015,18.092,0,25.204
	c9.908-3.395,13.514-13.089,15.753-24.153c12.147,32.017-11.386,61.178-36.755,69.308c6.657-8.045,15.176-14.228,17.853-26.253
	c-12.976,0.335-23.743,17.556-31.504,23.102c-3.412-2.645,3.267-12.625,4.2-17.851c-5.627,1.036-14.655,7.738-21.002,11.551
	c-0.295-9.054,13.452-13.143,17.851-21.002C190.171,177.54,198.459,161.326,204.847,143.21z" id="path-8" style="position: relative;"></path>
<path fill-rule="evenodd" clip-rule="evenodd" d="M155.492,263.976c-6.847-11.451-12.346-30.28-7.351-47.255
	c7.163,13.138,10.976,29.628,17.853,43.055c1.709-15.093,0.874-32.73,5.249-45.157c3.92,9.733,2.933,24.371,7.351,33.604
	c2.572-15.979,9.665-27.441,19.953-35.704c-5.033,13.534-12.11,30.746-8.402,56.708c0.844,5.904,3.73,10.655,6.302,14.702
	c2.271,3.571,7.761,8.02,8.4,11.549c1.658,9.151-8.545,27.284-11.551,34.655c-4.864,11.925-9.878,21.457-18.902,27.302
	c0.754-16.992,14.548-42.5,5.251-57.753c-7.048-11.566-27.236-10.899-42.006-6.303c-3.074,3.59,7.567,6.742,5.251,9.451
	c-8.517-1.286-14.247-5.354-23.102-6.302c1.598-5.751,9.246-5.456,11.551-10.502c-6.964-18.433-16.997-38.749-12.602-65.106
	c6.883,14.469,10.081,32.626,23.104,40.953c2.801-2.191-2.617-5.012-2.102-8.399C145.535,256.43,149.696,261.019,155.492,263.976z" id="path-9" style="position: relative;"></path>
<path fill-rule="evenodd" clip-rule="evenodd" d="M109.286,276.575c-7.451,32.574,7.052,62.218,39.904,64.06
	c-17.309,13.903-26.828,2.333-37.804-11.554c-5.144-6.507-13.121-14.445-13.651-18.901
	C96.222,297.455,108.972,288.363,109.286,276.575z" id="path-10" style="position: relative;"></path>
<path fill-rule="evenodd" clip-rule="evenodd" d="M136.59,312.281c7.123,0.577,16.636-1.234,22.053,1.051
	C158.643,326.185,137.152,320.391,136.59,312.281z" id="path-11" style="position: relative;"></path>
<path fill-rule="evenodd" clip-rule="evenodd" d="M134.49,326.983c6.095-1.876,16.309,1.175,24.153,1.051
	C156.304,339.768,136.846,335.55,134.49,326.983z" id="path-12" style="position: relative;"></path>
<path fill-rule="evenodd" clip-rule="evenodd" d="M176.494,366.89c4.685,2.688-4.73,6.35-5.251,10.498
	c-1.665,3.939-0.075,11.126-4.2,12.604C150.713,384.391,166.255,367.894,176.494,366.89z" id="path-13" style="position: relative;"></path>
<path fill-rule="evenodd" clip-rule="evenodd" d="M158.643,370.039c4.168,0.354-3.138,5.43-3.151,8.399
	c0.023,4.922,0.92,10.72-4.2,10.502C146.032,381.647,151.367,371.295,158.643,370.039z" id="path-14" style="position: relative;"></path>
<path fill-rule="evenodd" clip-rule="evenodd" d="M212.198,135.859c11.754-13.294,38.611,10.893,40.957-9.451
	c-5.661-3.091-18.866,1.361-23.104-3.151c0.171-1.22-0.233-1.867-1.051-2.1c3.269-13.435,8.125-30.035,25.202-26.253
	c7.114-22.51-29.504-4.003-33.602-18.902c9.917,4.916,25.219-2.367,36.755-1.049c2.128,6.971,0.581,17.62,1.051,26.253
	c-3.756-0.446-5.605-2.798-10.504-2.1c-6.016,4.834-7.834,13.867-10.5,22.051c3.331,0.502,14.621-0.058,19.953-1.049
	c2.346,20.549-6.798,29.607-18.904,35.704C241.03,141.811,225.063,137.86,212.198,135.859z" id="path-15" style="position: relative;"></path>
<path fill-rule="evenodd" clip-rule="evenodd" d="M195.396,85.453c-4.976,5.877-13.54,8.163-18.902,13.653
	C176.665,92.611,183.574,83.792,195.396,85.453z" id="path-16" style="position: relative;"></path>
<path fill-rule="evenodd" clip-rule="evenodd" d="M161.792,133.759c-2.091,9.466-11.292,20.906-15.751,31.504
	c4.561-1.053,11.844-8.447,16.802-12.602c1.113,2.903-3.807,8.766-4.2,13.653c14.948-5.003,23.762-16.142,30.453-29.404
	c4.172,36.027-35.636,37.172-42.006,66.157c-2.431-4.219-0.363-12.938-1.049-18.902c-12.389,10.716-8.723,37.483-9.451,59.857
	c-13.284-13.499-11.76-46.097-6.302-67.208c-6.067,0.603-13.988,13.997-19.951,14.702
	C119.41,164.186,140.226,148.595,161.792,133.759z" id="path-17" style="position: relative;"></path>
<path fill-rule="evenodd" clip-rule="evenodd" d="M122.937,186.265c-4.318,13.538-6.964,37.838-16.802,49.357
	C103.247,214.876,109.809,194.494,122.937,186.265z" id="path-18" style="position: relative;"></path>
</svg>
